# xmcd
#
# Track frame offsets: 
#        150
#        23607
#        48064
#        68020
#        87692
#        109682
#        130512
#        137830
#        160120
#        179567
#        202602
#        227340
#        245407
#        267410
#        290685
#        327040
#
# Disc length: 4773 seconds
#
# Revision: 3
# Processed by: cddbd v1.5.2PL0 Copyright (c) Steve Scherf et al.
# Submitted via: ExactAudioCopy v1.0b3
#
DISCID=d212a310
DTITLE=George Duke - The Essential George Duke Disc 2 EICP-473-4
DYEAR=2004
DGENRE=R&B
TTITLE0=Shine On
TTITLE1=Ride On Love
TTITLE2=Son Of Reach For It
TTITLE3=Every Reason To Smile
TTITLE4=Heroes
TTITLE5=The Good Times
TTITLE6=Overture
TTITLE7=Reach Out
TTITLE8=Give Me Your Love
TTITLE9=Silly Fightin'
TTITLE10=Got To Get Back To Love
TTITLE11=She Can Wait Forever
TTITLE12=Secret Rendevous
TTITLE13=Mothership Connection
TTITLE14=Dukey Stick 12" (Special Disco Version) (Bonus Track)
TTITLE15=Reach Out! 12" (Bonus Track)
EXTD=\n\n
EXTT0=
EXTT1=
EXTT2=
EXTT3=
EXTT4=
EXTT5=
EXTT6=
EXTT7=
EXTT8=
EXTT9=
EXTT10=
EXTT11=
EXTT12=
EXTT13=
EXTT14=
EXTT15=
PLAYORDER=
